<?xml version="1.0" standalone="no"?>
<!DOCTYPE svg PUBLIC "-//W3C//DTD SVG 20010904//EN"
 "http://www.w3.org/TR/2001/REC-SVG-20010904/DTD/svg10.dtd">
<svg version="1.0" xmlns="http://www.w3.org/2000/svg"
 width="960.000000pt" height="960.000000pt" viewBox="0 0 960.000000 960.000000"
 preserveAspectRatio="xMidYMid meet">
<metadata>
Created by potrace 1.11, written by Peter Selinger 2001-2013
</metadata>
<g transform="translate(0.000000,960.000000) scale(0.100000,-0.100000)"
fill="#000000" stroke="none">
<path d="M0 7200 l0 -2400 21 0 c11 0 18 -4 14 -10 -3 -5 -12 -7 -20 -3 -10 3
-15 -2 -15 -16 0 -14 7 -21 20 -22 11 -1 25 -3 30 -4 6 -1 15 -3 20 -4 6 0 10
-7 10 -15 0 -9 20 -15 61 -20 98 -10 124 -7 147 14 28 26 38 25 58 -5 14 -22
15 -30 4 -50 -7 -13 -10 -30 -8 -37 6 -14 -16 -41 -25 -31 -3 2 -16 1 -29 -3
-23 -7 -23 -7 7 -20 18 -8 23 -13 13 -14 -20 0 -24 -15 -7 -26 6 -3 34 -12 62
-20 55 -14 72 -7 61 29 -6 20 16 23 34 5 6 -6 15 -8 19 -4 4 4 2 11 -5 15 -10
6 -3 13 22 25 37 18 44 34 24 54 -9 9 -6 12 15 12 17 0 27 -5 27 -15 0 -8 9
-15 20 -15 17 0 18 5 13 50 -5 42 -3 50 11 50 12 0 16 -10 16 -40 0 -46 10
-51 27 -13 15 32 16 50 4 55 -11 4 -19 117 -8 118 47 2 77 -2 77 -10 0 -5 -15
-10 -34 -10 -19 0 -38 -4 -41 -10 -4 -6 11 -10 39 -10 37 0 46 4 51 21 8 23
35 54 56 62 8 3 -6 6 -31 7 -44 1 -45 1 -20 15 14 8 33 14 43 15 9 0 17 5 17
11 0 7 -7 8 -17 4 -41 -17 -86 -26 -99 -21 -13 5 -12 9 2 31 12 18 20 23 27
16 17 -17 77 -13 83 4 3 8 2 27 -3 42 -5 16 -6 46 -2 68 l6 40 2 -37 c1 -32 5
-38 22 -38 20 0 21 -4 17 -50 -5 -46 -3 -51 18 -56 32 -8 30 -17 -8 -33 -25
-10 -29 -15 -15 -18 12 -3 17 -15 17 -44 0 -32 3 -39 20 -39 25 0 17 -22 -13
-35 -14 -7 -22 -19 -22 -35 0 -14 -4 -31 -8 -38 -5 -7 -4 -18 1 -25 6 -7 12
-25 14 -42 2 -22 9 -31 25 -33 17 -3 22 -10 21 -30 -1 -15 2 -39 6 -55 7 -24
6 -27 -17 -27 -18 0 -27 -7 -31 -23 -4 -19 -12 -24 -38 -24 -55 0 -87 -7 -85
-18 1 -5 -18 -11 -43 -13 -49 -4 -60 -13 -60 -54 0 -16 -3 -28 -7 -28 -5 0
-16 -14 -26 -31 -18 -32 -32 -32 -32 -1 0 12 -12 19 -40 23 -22 3 -32 7 -21 8
15 1 17 7 12 39 -4 20 -10 56 -14 80 l-7 43 -65 3 c-36 1 -55 1 -42 -2 17 -3
22 -10 22 -33 0 -27 -3 -29 -39 -29 -26 0 -41 5 -45 16 -6 15 -8 15 -31 0 -13
-9 -39 -18 -57 -20 -27 -3 -33 -8 -33 -27 0 -19 -6 -24 -26 -25 -14 -1 -35
-10 -46 -21 -19 -19 -19 -19 6 -31 17 -8 27 -9 29 -2 2 5 12 10 22 10 10 0 20
9 23 20 4 17 14 20 60 20 35 0 57 5 60 13 2 7 10 0 17 -15 16 -34 24 -35 38
-3 7 15 20 25 32 25 11 0 20 5 20 10 0 6 11 10 25 10 14 0 25 -4 25 -10 0 -5
-11 -10 -24 -10 -18 0 -27 -8 -35 -30 -9 -27 -14 -30 -55 -30 -38 0 -46 -3
-46 -18 0 -23 -51 -42 -113 -42 -35 0 -47 -4 -47 -15 0 -22 -38 -39 -56 -24
-12 10 -12 14 6 26 11 8 18 19 15 24 -10 15 -65 10 -71 -6 -7 -18 -40 -20 -47
-2 -3 6 -6 -28 -6 -76 -1 -83 0 -88 18 -82 12 3 23 0 28 -9 4 -8 19 -16 33
-19 14 -3 1 -3 -27 -2 -47 3 -53 1 -53 -16 0 -10 5 -19 12 -19 9 0 9 -3 0 -12
-9 -9 -12 -114 -12 -410 0 -363 5 -447 24 -373 9 34 17 31 43 -13 l22 -37 1
43 c0 31 4 42 15 42 13 0 15 -10 14 -47 -3 -59 -7 -67 -25 -52 -10 8 -14 8
-14 0 0 -16 -30 -14 -36 3 -3 8 -14 16 -25 19 -18 5 -19 -22 -19 -1599 l0
-1604 4800 0 4800 0 0 4800 0 4800 -4800 0 -4800 0 0 -2400z m4357 1124 c-3
-3 -12 -4 -19 -1 -8 3 -5 6 6 6 11 1 17 -2 13 -5z m-67 -154 c0 -5 -6 -10 -14
-10 -8 0 -18 5 -21 10 -3 6 3 10 14 10 12 0 21 -4 21 -10z m1670 -50 c0 -5 -7
-7 -15 -4 -8 4 -15 8 -15 10 0 2 7 4 15 4 8 0 15 -4 15 -10z m40 -20 c0 -5 -2
-10 -4 -10 -3 0 -8 5 -11 10 -3 6 -1 10 4 10 6 0 11 -4 11 -10z m-55 -9 c10
-18 -14 -21 -47 -7 l-33 14 37 1 c20 1 39 -3 43 -8z m-30 -46 c26 -22 27 -25
10 -25 -23 0 -65 26 -65 41 0 16 24 9 55 -16z m225 -85 c0 -5 9 -10 19 -10 11
0 26 -6 33 -13 7 -7 21 -16 31 -20 10 -4 15 -12 12 -18 -5 -8 -10 -8 -18 0 -6
6 -18 11 -27 11 -9 0 -26 9 -38 20 -12 11 -26 20 -32 20 -5 0 -10 5 -10 10 0
6 7 10 15 10 8 0 15 -4 15 -10z m204 -121 c-3 -5 -13 -9 -22 -8 -10 0 -12 3
-5 5 7 3 9 13 6 22 -6 15 -5 15 10 3 9 -7 14 -17 11 -22z m-146 -39 c7 0 12 5
12 10 0 6 10 10 22 10 22 0 108 -84 108 -106 0 -6 11 -19 24 -27 29 -19 127
-152 119 -161 -4 -3 -1 -6 7 -6 10 0 10 -3 0 -15 -13 -16 -6 -35 15 -35 8 0
11 -7 8 -20 -3 -11 -10 -20 -17 -19 -19 0 -60 60 -61 87 0 20 -7 27 -33 34
-21 6 -36 18 -42 34 -5 13 -20 29 -32 34 -13 5 -20 9 -15 9 15 2 -44 77 -94
121 -28 24 -55 54 -61 65 -11 19 -10 19 9 3 11 -10 25 -18 31 -18z m-101 -19
c7 -9 13 -19 13 -23 0 -14 -29 4 -44 28 -15 22 -15 23 1 17 10 -4 23 -14 30
-22z m253 19 c0 -5 -6 -10 -14 -10 -8 0 -18 5 -21 10 -3 6 3 10 14 10 12 0 21
-4 21 -10z m-2195 -60 c32 -33 27 -54 -6 -24 -25 22 -43 54 -31 54 4 0 21 -13
37 -30z m2001 -37 c-7 -7 -26 7 -26 19 0 6 6 6 15 -2 9 -7 13 -15 11 -17z
m-36 -24 c0 -6 -4 -7 -10 -4 -5 3 -10 11 -10 16 0 6 5 7 10 4 6 -3 10 -11 10
-16z m110 1 c9 -16 8 -20 -5 -20 -8 0 -15 9 -15 20 0 11 2 20 5 20 2 0 9 -9
15 -20z m-2025 0 c3 -6 -1 -7 -9 -4 -18 7 -21 14 -7 14 6 0 13 -4 16 -10z
m1859 -40 c14 -35 37 -65 72 -97 29 -26 35 -36 26 -45 -9 -9 -15 -9 -24 0 -23
23 -26 12 -7 -28 11 -23 26 -43 34 -47 8 -3 15 -12 15 -19 0 -8 11 -19 25 -24
14 -5 25 -17 25 -28 0 -10 5 -23 11 -29 10 -10 22 -93 13 -93 -1 0 -18 31 -38
70 -40 81 -112 171 -131 164 -17 -7 -29 27 -13 38 10 6 9 8 -3 8 -9 0 -24 12
-34 26 -16 25 -16 25 6 13 22 -11 22 -10 -4 20 -15 18 -27 37 -27 42 0 5 -7 9
-15 9 -17 0 -20 16 -5 25 6 4 8 15 5 25 -5 17 -4 17 29 1 19 -9 37 -23 40 -31z
m-214 -22 c29 -39 37 -68 24 -81 -7 -7 -84 79 -84 95 0 6 -9 8 -20 5 -11 -3
-20 -1 -20 3 0 9 22 17 52 19 10 0 31 -17 48 -41z m312 14 c7 -10 25 -22 41
-26 23 -5 26 -10 21 -31 -4 -14 -1 -32 6 -40 7 -8 14 -27 15 -42 1 -16 7 -39
13 -53 8 -21 6 -26 -11 -33 -24 -9 -35 -1 -19 15 12 12 2 40 -25 66 -7 8 -11
18 -8 23 4 5 1 9 -4 9 -6 0 -11 9 -11 19 0 11 -9 23 -21 26 -14 5 -19 13 -16
26 3 10 1 22 -4 25 -12 7 -12 34 0 34 6 0 16 -8 23 -18z m-1922 -2 c0 -5 -2
-10 -4 -10 -3 0 -8 5 -11 10 -3 6 -1 10 4 10 6 0 11 -4 11 -10z m2063 -31 c10
-18 16 -33 14 -35 -6 -6 -57 44 -57 56 0 21 26 9 43 -21z m227 -12 c29 -34 80
-126 80 -144 0 -7 9 -17 19 -23 11 -5 25 -26 31 -45 6 -19 16 -35 21 -35 5 0
9 -5 9 -12 0 -6 6 -19 14 -27 21 -23 57 -111 46 -111 -6 0 -10 7 -10 15 0 7
-6 18 -13 22 -13 8 -40 47 -68 98 -80 147 -92 168 -105 180 -5 5 -22 29 -37
53 -15 23 -32 42 -37 42 -5 0 -7 7 -4 15 7 18 20 11 54 -28z m-575 9 c29 -32
77 -117 69 -125 -3 -3 -12 3 -20 14 -8 11 -25 31 -37 45 -13 14 -33 40 -46 58
-19 28 -20 32 -5 32 9 0 27 -11 39 -24z m400 -57 c11 -17 0 -20 -21 -4 -17 13
-17 14 -2 15 9 0 20 -5 23 -11z m-842 -30 c22 -25 15 -38 -8 -15 -20 19 -42
21 -48 4 -2 -7 -8 -10 -12 -5 -9 8 22 36 40 37 6 0 19 -9 28 -21z m777 -10 c0
-11 7 -22 16 -26 9 -3 14 -13 11 -24 -3 -11 0 -19 6 -19 14 0 87 -71 87 -85 0
-5 11 -32 25 -58 28 -57 35 -92 18 -91 -7 1 -20 2 -28 3 -9 0 -15 12 -16 29 0
23 -2 24 -8 8 -7 -18 -9 -16 -19 12 -6 18 -8 40 -5 49 5 12 2 15 -10 10 -24
-9 -32 11 -12 33 21 23 9 44 -30 54 -31 8 -75 101 -60 126 9 15 25 2 25 -21z
m86 -6 c-10 -10 -19 5 -10 18 6 11 8 11 12 0 2 -7 1 -15 -2 -18z m-392 -6 c10
-8 27 -36 37 -63 l19 -49 -38 39 c-45 49 -67 86 -48 86 7 0 20 -6 30 -13z
m-124 -41 c0 -5 7 -17 16 -27 16 -18 11 -43 -8 -37 -10 4 -37 79 -38 102 0 12
29 -26 30 -38z m560 24 c0 -14 -33 -21 -44 -10 -8 8 -7 13 3 19 15 10 41 4 41
-9z m-1015 0 c3 -5 -1 -10 -9 -10 -9 0 -16 5 -16 10 0 6 4 10 9 10 6 0 13 -4
16 -10z m215 -44 c0 -6 -7 -2 -15 8 -8 11 -15 25 -15 30 0 6 7 2 15 -8 8 -11
15 -25 15 -30z m-1290 -11 c0 -17 -2 -17 -10 -5 -5 8 -10 24 -10 35 0 17 2 17
10 5 5 -8 10 -24 10 -35z m430 10 c-9 -10 -6 -16 9 -25 16 -8 20 -19 18 -43
-1 -25 2 -31 14 -29 11 1 19 -7 24 -25 8 -35 25 -12 20 29 -3 27 -3 27 20 12
24 -16 42 -50 35 -69 -3 -10 -1 -154 4 -277 2 -40 -1 -58 -10 -58 -19 0 -46
50 -46 86 0 35 -21 64 -33 44 -3 -5 -3 -14 0 -20 3 -5 2 -10 -4 -10 -10 0 -16
23 -27 103 -6 48 -17 66 -29 47 -5 -8 -11 -7 -21 1 -10 9 -14 9 -14 0 0 -6 6
-14 13 -17 7 -2 12 -17 11 -32 -1 -15 -3 -37 -3 -50 -2 -42 -19 -13 -26 44 -4
32 -9 63 -12 71 -8 20 -41 16 -48 -7 -8 -26 -27 -15 -24 13 2 12 -2 31 -8 42
-6 11 -14 41 -18 68 -6 36 -4 47 6 47 19 0 32 -11 47 -39 11 -19 11 -25 1 -32
-10 -6 -10 -10 0 -23 8 -9 20 -16 27 -16 8 0 14 -7 14 -16 0 -8 4 -13 9 -10 4
3 5 24 1 47 -11 58 -1 120 23 146 21 23 46 21 27 -2z m742 13 c21 -17 63 -106
55 -115 -11 -10 -36 29 -37 55 0 12 -4 22 -9 22 -5 0 -16 11 -25 25 -18 27
-10 33 16 13z m-155 -20 c-3 -8 -6 -5 -6 6 -1 11 2 17 5 13 3 -3 4 -12 1 -19z
m133 -30 c0 -12 -8 -10 -30 9 -14 13 -16 19 -7 25 11 7 37 -16 37 -34z m-671
5 c0 -25 -1 -26 -9 -8 -12 27 -12 35 0 35 6 0 10 -12 9 -27z m-991 -7 c15 -8
38 -17 53 -20 14 -3 38 -19 55 -35 16 -17 34 -31 41 -31 7 0 21 -9 31 -20 15
-16 18 -31 14 -68 -4 -43 -1 -50 31 -85 20 -20 37 -49 39 -65 4 -34 -12 -93
-28 -99 -8 -3 -9 -15 -3 -41 5 -20 9 -56 9 -79 0 -49 15 -66 18 -20 3 40 8 44
22 17 9 -16 9 -29 2 -44 -6 -11 -13 -49 -15 -82 -3 -34 -10 -72 -17 -84 l-13
-23 -12 29 c-12 29 -12 29 -20 -27 -4 -31 -5 -65 -2 -75 3 -13 5 -11 6 9 1 30
15 36 25 11 12 -32 5 -55 -26 -81 -17 -16 -38 -36 -47 -46 -23 -27 -61 -40
-77 -27 -9 8 -18 8 -33 1 -16 -9 -25 -8 -41 6 -11 10 -20 23 -20 29 0 6 -7 17
-15 24 -17 14 -27 -1 -28 -42 -1 -37 52 -278 69 -314 9 -18 16 -50 16 -70 0
-40 0 -40 98 -142 l69 -72 2 -108 c3 -196 2 -202 -13 -220 -14 -15 -21 -53
-43 -222 -3 -25 -6 -72 -5 -105 1 -65 -32 -261 -49 -292 -5 -11 -8 -29 -5 -40
8 -28 -10 -36 -49 -24 -17 6 -72 20 -122 32 -49 12 -130 34 -178 50 -100 33
-156 36 -197 12 -27 -15 -29 -15 -55 5 -14 11 -33 18 -41 15 -18 -7 -18 3 2
35 9 15 41 42 71 61 30 18 64 49 75 67 29 50 73 71 166 83 155 20 181 34 280
155 38 48 25 71 -26 43 -52 -29 -276 37 -385 113 -44 31 -137 53 -217 50 -41
-2 -80 9 -80 21 0 5 -5 9 -11 9 -8 0 -10 -17 -6 -56 6 -61 53 -150 111 -212
33 -35 34 -31 -18 -96 -16 -20 -41 -73 -56 -119 -28 -83 -46 -101 -70 -72 -7
8 -17 15 -23 15 -23 0 -77 52 -77 73 0 13 -9 41 -21 62 -42 81 -7 275 79 437
28 53 44 71 79 89 24 12 72 52 107 88 35 36 90 89 121 116 96 84 178 173 213
231 27 47 33 69 38 140 6 78 5 87 -15 105 -11 11 -21 24 -21 29 0 6 -18 10
-40 10 -25 0 -43 5 -46 14 -3 8 -21 13 -45 13 -22 0 -45 5 -52 12 -6 6 -21 11
-32 11 -12 0 -30 9 -40 20 -15 17 -28 20 -66 16 -27 -2 -55 -11 -64 -20 -9 -9
-23 -16 -31 -16 -12 0 -12 6 2 38 37 82 104 253 104 263 0 6 6 25 14 42 8 18
33 73 56 122 23 50 51 117 62 150 12 33 29 72 39 87 11 14 19 29 19 33 0 13
87 129 118 158 16 16 47 35 68 42 51 18 139 19 172 1z m662 -20 c13 -23 13
-28 0 -36 -19 -12 -26 -4 -34 38 -7 41 11 40 34 -2z m580 22 c0 -10 2 -10 9 0
7 11 10 10 15 -3 3 -9 6 -26 6 -38 1 -12 7 -39 14 -59 8 -23 10 -38 4 -38 -6
0 -7 -11 -3 -27 18 -70 28 -266 14 -257 -5 3 -9 -5 -10 -18 l0 -23 -9 22 c-17
43 -19 103 -3 118 13 13 13 15 -1 15 -18 0 -22 35 -6 45 15 10 12 35 -5 35
-10 0 -16 11 -17 33 -1 17 -3 48 -5 67 -2 19 -5 52 -6 73 -1 20 -5 37 -9 37
-5 0 -8 7 -8 15 0 8 5 15 10 15 6 0 10 -6 10 -12z m151 -25 c7 -21 12 -44 11
-50 -2 -7 4 -13 13 -13 9 0 15 9 15 25 0 30 4 31 28 7 42 -45 73 -145 75 -242
1 -39 -1 -45 -19 -42 -17 2 -19 -2 -16 -40 3 -24 9 -46 16 -50 7 -5 5 -12 -8
-21 -19 -14 -19 -15 2 -28 28 -18 28 -30 0 -25 -16 2 -24 11 -26 27 -13 98
-62 146 -62 61 0 -51 -10 -82 -25 -82 -7 0 -16 11 -19 25 -4 17 -12 25 -24 23
-12 -2 -18 5 -20 25 -2 15 1 27 7 27 6 0 11 -5 11 -11 0 -5 4 -8 9 -5 4 3 2
30 -6 60 -10 42 -12 72 -5 123 6 39 6 69 1 71 -15 6 -10 39 6 46 8 3 15 13 15
22 0 10 -5 14 -15 11 -17 -7 -29 8 -20 23 5 8 11 8 20 0 17 -14 32 7 16 23
-13 13 -15 47 -2 47 5 0 15 -17 22 -37z m149 12 c0 -8 -4 -15 -10 -15 -5 0
-10 7 -10 15 0 8 5 15 10 15 6 0 10 -7 10 -15z m930 5 c0 -5 -2 -10 -4 -10 -3
0 -8 5 -11 10 -3 6 -1 10 4 10 6 0 11 -4 11 -10z m-1930 -24 c0 -7 -15 -12
-35 -13 -40 -1 -45 8 -12 23 25 12 47 7 47 -10z m1076 -23 c-4 -4 -14 1 -22
11 -22 31 -17 43 8 19 12 -13 18 -26 14 -30z m-1376 3 c0 -19 -4 -38 -10 -41
-6 -4 -10 10 -10 34 0 23 5 41 10 41 6 0 10 -15 10 -34z m2408 -12 c-10 -10
-28 6 -28 24 0 15 1 15 17 -1 9 -9 14 -19 11 -23z m-1077 5 c22 -22 19 -52 -4
-44 -15 6 -39 65 -26 65 5 0 18 -9 30 -21z m-1051 -30 c0 -10 -7 -19 -15 -19
-15 0 -21 31 -9 43 11 10 24 -3 24 -24z m1119 -1 c12 -15 11 -18 -3 -18 -10 0
-16 8 -16 22 0 12 1 19 3 17 1 -2 9 -12 16 -21z m-1063 -5 c-3 -3 2 -12 10
-20 8 -9 12 -18 9 -22 -8 -8 -35 28 -35 47 0 7 5 10 11 7 6 -4 8 -9 5 -12z
m-223 -30 c3 -24 0 -43 -9 -53 -12 -12 -14 -7 -14 38 0 60 15 70 23 15z m327
-18 c0 -30 -4 -55 -8 -55 -5 0 -9 25 -10 55 -1 30 3 55 8 55 6 0 10 -25 10
-55z m874 40 c12 -9 19 -26 18 -45 0 -16 4 -32 9 -35 5 -4 5 -14 -2 -26 -6
-12 -8 -37 -4 -59 4 -22 2 -41 -4 -44 -16 -10 -21 8 -23 95 -1 53 -7 89 -15
97 -28 29 -12 42 21 17z m831 -33 c-9 -9 -25 11 -25 31 1 21 1 21 15 -3 7 -14
12 -27 10 -28z m-1613 7 c-3 -20 -10 -29 -23 -29 -21 0 -23 8 -9 30 6 9 5 17
-2 21 -5 4 1 7 14 7 21 0 24 -4 20 -29z m358 -15 c0 -8 -4 -12 -10 -9 -5 3
-10 10 -10 16 0 5 5 9 10 9 6 0 10 -7 10 -16z m980 1 c0 -9 -6 -12 -15 -9 -8
4 -15 10 -15 15 0 5 7 9 15 9 8 0 15 -7 15 -15z m-468 -27 c5 -28 4 -29 -9
-13 -15 21 -17 45 -4 45 5 0 11 -14 13 -32z m-432 2 c0 -11 -4 -20 -10 -20 -5
0 -10 9 -10 20 0 11 5 20 10 20 6 0 10 -9 10 -20z m-680 -45 c0 -42 3 -55 15
-55 17 0 21 -59 6 -88 -5 -9 -12 -25 -15 -34 -8 -28 -23 -21 -23 10 -1 58 -12
184 -17 190 -7 6 13 32 25 32 5 0 9 -25 9 -55z m2160 39 c0 -8 -5 -12 -10 -9
-6 4 -8 11 -5 16 9 14 15 11 15 -7z m-1932 -92 c-2 -20 -7 -37 -13 -37 -12 0
-24 81 -17 109 8 32 34 -28 30 -72z m1302 78 c0 -5 -2 -10 -4 -10 -3 0 -8 5
-11 10 -3 6 -1 10 4 10 6 0 11 -4 11 -10z m-1450 -31 c0 -5 -4 -9 -10 -9 -5 0
-10 7 -10 16 0 8 5 12 10 9 6 -3 10 -10 10 -16z m518 1 c7 -12 16 -19 20 -16
5 3 14 0 22 -5 11 -8 12 -12 3 -16 -10 -4 -10 -9 -1 -26 7 -13 13 -71 15 -137
1 -63 5 -146 7 -185 3 -38 7 -112 10 -164 3 -52 8 -116 11 -143 5 -32 3 -48
-4 -48 -9 0 -16 28 -12 52 0 4 -6 70 -14 145 -12 109 -20 144 -37 167 -19 27
-20 30 -4 41 16 12 23 41 7 31 -9 -6 -24 18 -26 39 0 6 -7 25 -14 44 -11 24
-12 38 -4 51 6 9 9 40 7 68 -5 47 -3 52 16 52 20 0 26 11 13 23 -3 4 -12 2
-20 -4 -15 -13 -14 -14 -19 24 -3 32 6 35 24 7z m-753 -64 c-4 -31 -12 -56
-17 -56 -6 0 -8 10 -5 23 3 12 9 39 13 60 10 57 17 37 9 -27z m1695 54 c0 -5
-4 -10 -10 -10 -5 0 -10 5 -10 10 0 6 5 10 10 10 6 0 10 -4 10 -10z m-126 -16
c3 -9 6 -28 6 -44 0 -18 9 -35 25 -48 13 -11 22 -22 18 -26 -3 -3 2 -15 11
-25 11 -13 15 -27 11 -40 -3 -12 -2 -21 4 -21 10 0 26 -56 22 -82 -1 -9 3 -19
9 -23 5 -3 10 -15 10 -25 0 -10 5 -20 11 -22 6 -2 9 -13 7 -23 -3 -17 -7 -15
-22 13 -12 23 -22 32 -33 28 -13 -5 -14 0 -9 28 5 24 2 37 -6 43 -18 11 -38
58 -38 89 0 13 -7 27 -15 30 -10 4 -15 19 -15 43 0 20 -4 41 -9 47 -4 5 -11
24 -14 42 -5 23 -3 32 7 32 8 0 17 -7 20 -16z m567 -86 c9 -27 13 -48 8 -48
-5 0 -12 8 -15 18 -10 32 -28 67 -42 84 -8 10 -11 25 -7 35 6 16 9 14 22 -12
9 -16 24 -51 34 -77z m139 92 c0 -5 -4 -10 -10 -10 -5 0 -10 5 -10 10 0 6 5
10 10 10 6 0 10 -4 10 -10z m-1055 -10 c3 -5 1 -10 -4 -10 -6 0 -11 5 -11 10
0 6 2 10 4 10 3 0 8 -4 11 -10z m500 1 c3 -5 1 -12 -5 -16 -5 -3 -10 1 -10 9
0 18 6 21 15 7z m-1241 -13 c13 -13 10 -58 -5 -58 -5 0 -9 9 -9 19 0 11 -3 26
-6 35 -7 19 2 21 20 4z m387 -17 c0 -9 2 -41 3 -71 2 -30 4 -72 5 -93 1 -29 6
-40 20 -44 11 -3 22 -11 25 -18 3 -9 0 -12 -10 -8 -12 4 -14 0 -8 -21 3 -14 1
-32 -5 -39 -5 -7 -11 -41 -12 -75 -1 -34 -6 -62 -11 -62 -5 0 -9 28 -8 63 2
68 -9 167 -19 167 -9 0 -7 147 2 156 11 11 9 46 -3 39 -5 -3 -10 0 -10 8 0 19
30 17 31 -2z m783 -15 c4 -19 13 -39 21 -46 16 -14 21 -70 6 -70 -5 0 -11 12
-13 28 -2 15 -9 27 -17 27 -16 0 -35 59 -27 81 9 25 24 15 30 -20z m96 -7 c0
-5 -7 -9 -15 -9 -17 0 -20 -16 -5 -25 12 -8 13 -45 1 -45 -10 0 -32 80 -25 91
6 10 44 -1 44 -12z m-1171 -61 c1 -11 -5 -15 -19 -11 -20 5 -29 33 -10 33 6 0
10 10 11 23 1 21 1 21 9 -3 4 -14 8 -32 9 -42z m-305 16 c4 -10 1 -14 -6 -12
-15 5 -23 28 -10 28 5 0 13 -7 16 -16z m1843 -26 c-3 -8 -6 -5 -6 6 -1 11 2
17 5 13 3 -3 4 -12 1 -19z m-1494 -28 c3 -11 1 -20 -4 -20 -5 0 -9 9 -9 20 0
11 2 20 4 20 2 0 6 -9 9 -20z m-57 -48 c1 -15 5 -37 9 -49 4 -14 3 -23 -3 -23
-6 0 -15 19 -20 43 -5 23 -14 41 -20 40 -7 -2 -12 1 -12 6 0 10 31 20 40 13 3
-2 6 -16 6 -30z m1611 15 c-6 -20 -27 -19 -27 2 0 14 5 19 15 14 9 -3 14 -10
12 -16z m-3547 3 c0 -5 -5 -10 -11 -10 -5 0 -7 5 -4 10 3 6 8 10 11 10 2 0 4
-4 4 -10z m1526 -37 c-11 -11 -19 6 -11 24 8 17 8 17 12 0 3 -10 2 -21 -1 -24z
m542 5 c10 3 13 -3 10 -19 -2 -13 -9 -23 -16 -21 -8 1 -11 -2 -6 -9 4 -7 2
-10 -6 -7 -7 2 -14 11 -16 19 -1 7 -3 19 -4 24 -1 6 -2 19 -1 30 2 20 2 20 14
-1 7 -12 18 -19 25 -16z m1089 -35 c-3 -10 -5 -4 -5 12 0 17 2 24 5 18 2 -7 2
-21 0 -30z m-787 -25 c0 -4 -7 -8 -15 -8 -10 0 -15 10 -15 28 1 26 1 26 15 8
8 -11 15 -23 15 -28z m1110 11 c0 -6 -4 -7 -10 -4 -5 3 -10 11 -10 16 0 6 5 7
10 4 6 -3 10 -11 10 -16z m-3510 -3 c0 -11 -19 -15 -25 -6 -3 5 1 10 9 10 9 0
16 -2 16 -4z m2136 -11 c-16 -12 -17 -19 -9 -38 7 -16 8 -29 1 -41 -9 -16 -11
-15 -24 9 -14 26 -19 67 -10 76 3 3 18 5 33 7 27 1 27 1 9 -13z m1019 -15 c-5
-8 -11 -8 -17 -2 -6 6 -7 16 -3 22 5 8 11 8 17 2 6 -6 7 -16 3 -22z m-742 -30
c22 -26 23 -62 1 -53 -13 5 -14 0 -9 -31 5 -25 4 -36 -5 -36 -7 0 -10 7 -6 15
3 8 -1 30 -9 48 -13 32 -11 77 4 77 4 0 14 -9 24 -20z m-419 -21 c-8 -14 -24
-10 -24 6 0 9 6 12 15 9 8 -4 12 -10 9 -15z m354 -37 c12 -9 13 -15 5 -23 -15
-15 -5 -39 13 -32 20 7 18 -4 -6 -34 -21 -27 -26 -53 -11 -53 5 0 7 -9 4 -20
-9 -36 -23 -10 -23 43 1 29 -1 77 -4 107 -2 30 -2 48 1 40 3 -8 12 -21 21 -28z
m-358 -18 c0 -8 -4 -14 -10 -14 -5 0 -10 9 -10 21 0 11 5 17 10 14 6 -3 10
-13 10 -21z m464 -74 c3 -36 0 -50 -9 -50 -7 0 -15 7 -19 15 -3 8 -13 15 -23
15 -16 1 -15 3 4 19 12 10 20 21 16 24 -3 3 -2 19 2 34 6 24 8 25 16 11 5 -10
11 -40 13 -68z m-319 60 c-3 -5 -8 -20 -10 -31 -6 -29 -13 -35 -27 -21 -9 9
-9 12 0 12 7 0 12 11 12 25 0 16 6 25 16 25 8 0 12 -4 9 -10z m978 -15 c-3 -9
0 -22 6 -29 16 -19 -5 -32 -24 -16 -18 15 -19 42 -3 58 14 14 29 6 21 -13z
m-1126 -17 c-3 -8 -6 -5 -6 6 -1 11 2 17 5 13 3 -3 4 -12 1 -19z m23 -28 c0
-5 -4 -10 -10 -10 -5 0 -10 5 -10 10 0 6 5 10 10 10 6 0 10 -4 10 -10z m115
-20 c3 -5 1 -10 -4 -10 -6 0 -11 5 -11 10 0 6 2 10 4 10 3 0 8 -4 11 -10z
m179 -17 c2 -10 8 -48 12 -85 6 -65 5 -68 -15 -68 -25 0 -39 26 -23 42 7 7 8
18 3 27 -7 12 -8 84 -2 99 4 9 21 -1 25 -15z m-334 -19 c0 -14 -4 -23 -10 -19
-5 3 -10 15 -10 26 0 10 5 19 10 19 6 0 10 -12 10 -26z m154 1 c-4 -8 -10 -12
-15 -9 -11 6 -2 24 11 24 5 0 7 -7 4 -15z m354 -114 c7 -48 12 -95 12 -102 -1
-25 -17 12 -25 56 -9 52 -17 63 -26 39 -6 -16 -8 -15 -8 8 -1 15 4 30 10 34 6
3 8 17 5 30 -4 16 -2 24 7 24 9 0 17 -27 25 -89z m-48 48 c0 -5 -4 -9 -10 -9
-5 0 -10 7 -10 16 0 8 5 12 10 9 6 -3 10 -10 10 -16z m-4460 -29 c0 -5 -5 -10
-11 -10 -5 0 -7 5 -4 10 3 6 8 10 11 10 2 0 4 -4 4 -10z m4395 1 c3 -5 1 -12
-5 -16 -5 -3 -10 1 -10 9 0 18 6 21 15 7z m-235 -11 c0 -5 -5 -10 -11 -10 -5
0 -7 5 -4 10 3 6 8 10 11 10 2 0 4 -4 4 -10z m70 -38 c0 -15 -2 -15 -10 -2
-13 20 -13 33 0 25 6 -3 10 -14 10 -23z m-4246 -8 c5 -14 16 -15 59 -11 35 4
45 4 31 -3 -34 -13 -39 -30 -10 -30 14 0 28 5 31 10 3 6 30 10 59 10 28 0 57
5 63 11 6 6 38 11 71 12 62 2 102 -18 102 -50 0 -7 5 -13 11 -13 17 0 39 -27
39 -49 0 -12 6 -21 13 -22 10 0 10 -2 0 -6 -7 -2 -13 -11 -13 -19 0 -8 -7 -14
-16 -14 -22 0 -52 -40 -46 -62 5 -20 22 -25 22 -5 0 17 47 37 87 37 26 0 34
-5 39 -25 3 -14 3 -36 0 -50 -6 -22 -12 -25 -51 -25 -25 0 -45 -4 -45 -9 0 -5
45 -8 100 -7 72 1 99 4 96 13 -7 17 17 23 37 8 13 -10 15 -18 7 -46 -7 -22 -7
-35 0 -37 5 -2 10 -22 10 -45 l1 -42 15 28 c17 32 29 34 44 8 13 -26 13 -31
-5 -31 -8 0 -15 -4 -15 -10 0 -15 -28 -12 -56 7 -16 10 -21 19 -14 23 7 5 6
14 -3 33 -8 15 -17 24 -20 20 -4 -3 -7 -1 -7 6 0 7 -4 9 -10 6 -5 -3 -10 -42
-10 -86 0 -73 2 -79 21 -79 12 0 17 4 13 11 -5 8 -1 8 14 0 27 -14 112 -14
112 0 0 6 -6 9 -14 6 -16 -7 -30 19 -15 28 18 11 64 0 78 -19 12 -15 12 -19 0
-27 -12 -7 -12 -9 0 -9 11 0 11 -3 1 -15 -7 -8 -21 -15 -31 -15 -12 0 -19 -7
-19 -20 0 -11 -7 -20 -15 -20 -8 0 -15 -7 -15 -15 0 -11 -7 -14 -25 -9 -19 5
-25 2 -25 -10 0 -20 -10 -20 -38 0 -12 8 -30 13 -40 10 -10 -3 -32 -2 -50 3
-31 9 -32 8 -32 -19 0 -21 -6 -31 -22 -36 -19 -6 -17 -8 18 -20 21 -8 49 -14
62 -14 12 0 22 -4 22 -10 0 -5 -12 -10 -27 -10 -48 0 -59 -17 -18 -24 27 -5
41 -4 47 6 7 9 8 8 4 -5 -3 -10 -6 -25 -6 -33 0 -17 -85 -20 -95 -4 -12 19
-35 10 -41 -16 -4 -17 -2 -29 7 -35 7 -4 10 -11 6 -15 -3 -4 -13 -1 -22 6 -13
11 -14 8 -9 -19 l7 -32 -39 16 c-21 8 -45 23 -51 32 -12 15 -13 15 -13 -3 0
-11 7 -30 16 -42 8 -12 10 -22 5 -22 -6 0 -11 -7 -11 -15 0 -23 -16 -18 -34
10 -15 23 -46 35 -46 18 0 -5 -19 -9 -41 -10 l-42 -3 7 39 c7 43 -1 56 -21 39
-10 -8 -30 -8 -81 1 -37 6 -87 13 -111 15 -44 3 -63 17 -41 31 14 9 -6 35 -26
35 -10 0 -14 13 -14 40 0 29 -4 40 -15 40 -8 0 -15 -5 -15 -11 0 -8 -5 -7 -16
2 -14 12 -14 14 3 20 13 4 5 8 -27 14 l-45 8 40 12 40 13 -37 1 c-28 1 -38 5
-38 17 0 14 -10 15 -80 9 -60 -5 -80 -4 -80 5 0 8 -8 10 -21 7 -29 -8 -37 21
-10 40 21 14 21 16 5 27 -9 7 -14 18 -10 24 5 8 -1 12 -15 12 -17 0 -19 -3
-10 -13 13 -17 5 -27 -22 -27 -16 0 -18 5 -15 30 3 17 1 33 -3 35 -9 6 1 48
15 58 8 6 6 11 -5 19 -13 9 -14 17 -5 50 8 32 8 41 -4 48 -13 8 -12 10 3 10
19 0 23 30 7 61 -10 17 -7 19 22 18 18 0 27 -3 21 -6 -15 -5 -18 -83 -4 -83 5
0 12 18 16 40 4 22 12 40 18 40 15 0 18 63 3 72 -6 4 4 8 22 8 17 0 32 -5 32
-11 0 -5 5 -7 10 -4 25 16 8 31 -37 34 -26 1 -49 4 -51 5 -10 11 35 36 64 36
19 0 34 5 34 10 0 6 5 10 10 10 6 0 10 -7 10 -15 0 -13 7 -15 38 -9 20 4 39
10 42 13 21 26 83 70 91 65 5 -3 16 0 24 6 19 16 45 -3 45 -31 0 -11 5 -19 10
-19 6 0 10 6 10 14 0 8 -4 18 -10 21 -12 8 -13 35 -1 35 5 0 12 -7 15 -16z
m4185 -81 l-1 -48 -9 35 c-4 19 -6 41 -4 48 9 25 15 10 14 -35z m-129 17 c0
-5 -2 -10 -4 -10 -3 0 -8 5 -11 10 -3 6 -1 10 4 10 6 0 11 -4 11 -10z m237
-22 c-3 -8 -6 -5 -6 6 -1 11 2 17 5 13 3 -3 4 -12 1 -19z m-3787 -8 c12 -8 9
-10 -13 -10 -16 0 -26 4 -22 10 8 12 16 12 35 0z m-900 -76 c0 -2 -9 -4 -20
-4 -11 0 -20 4 -20 9 0 5 9 7 20 4 11 -3 20 -7 20 -9z m4962 -36 c-6 -6 -16
-7 -22 -3 -9 6 -9 9 1 16 17 10 34 0 21 -13z m-4005 -50 c-3 -8 -6 -5 -6 6 -1
11 2 17 5 13 3 -3 4 -12 1 -19z m153 2 c0 -5 -7 -10 -16 -10 -8 0 -12 5 -9 10
3 6 10 10 16 10 5 0 9 -4 9 -10z m-1180 -20 c0 -5 -10 -10 -22 -9 -22 0 -22 1
-3 9 11 5 21 9 23 9 1 1 2 -3 2 -9z m1030 -20 c0 -5 -4 -10 -10 -10 -5 0 -10
5 -10 10 0 6 5 10 10 10 6 0 10 -4 10 -10z m173 -27 c-6 -38 -29 -71 -40 -59
-3 3 0 12 7 21 7 8 10 25 6 39 -5 22 2 32 26 35 4 1 4 -16 1 -36z m3697 12 c0
-8 -4 -15 -10 -15 -5 0 -10 7 -10 15 0 8 5 15 10 15 6 0 10 -7 10 -15z m-455
-45 c3 -5 1 -10 -4 -10 -6 0 -11 5 -11 10 0 6 2 10 4 10 3 0 8 -4 11 -10z
m-3166 -36 c10 -9 -35 -3 -49 6 -11 8 -7 9 15 4 17 -4 32 -8 34 -10z m15 -43
c3 -5 -1 -11 -9 -15 -9 -3 -15 0 -15 9 0 16 16 20 24 6z m70 -10 c6 -8 -26
-51 -38 -51 -3 0 -6 7 -6 15 0 8 4 15 10 15 5 0 7 7 4 15 -7 16 21 22 30 6z
m-220 -56 c33 -51 12 -39 -33 18 -12 15 -12 17 2 11 9 -3 23 -16 31 -29z m611
-15 c-3 -5 -13 -10 -21 -10 -8 0 -14 5 -14 10 0 6 9 10 21 10 11 0 17 -4 14
-10z m2767 -16 c-7 -12 -11 -13 -17 -4 -4 7 -2 16 6 21 18 11 23 4 11 -17z
m-2882 1 c0 -8 -4 -15 -10 -15 -5 0 -7 7 -4 15 4 8 8 15 10 15 2 0 4 -7 4 -15z
m487 -30 c-13 -26 -31 -32 -43 -14 -7 12 35 51 47 43 4 -2 2 -15 -4 -29z
m-327 20 c0 -11 -51 -24 -67 -17 -17 6 -13 8 60 21 4 0 7 -1 7 -4z m5258 -16
c19 -30 -3 -53 -24 -25 -8 11 -14 26 -14 33 0 20 24 15 38 -8z m-5079 -4 c16
-8 31 -11 35 -8 3 4 6 1 6 -6 0 -8 12 -11 33 -9 27 3 32 0 29 -17 -1 -11 6
-25 18 -33 17 -10 20 -10 21 5 0 11 3 13 6 5 13 -32 73 -37 73 -6 0 17 44 29
67 18 16 -7 16 -8 -3 -11 -18 -3 -21 -10 -19 -44 1 -21 -2 -39 -7 -39 -5 0 -6
-4 -3 -10 3 -5 15 -10 26 -10 10 0 19 -4 19 -10 0 -5 -12 -10 -26 -10 -31 0
-28 -23 5 -28 12 -2 21 -9 20 -15 -3 -27 2 -35 21 -30 11 3 20 0 20 -6 0 -6
-13 -14 -30 -17 -16 -4 -30 -9 -30 -13 0 -11 50 -29 56 -20 10 17 34 9 34 -11
0 -21 -40 -38 -59 -25 -6 3 -11 2 -11 -3 0 -5 9 -12 20 -15 12 -3 18 -11 15
-19 -3 -7 -1 -26 3 -43 5 -17 5 -42 -1 -57 -8 -26 -17 -32 -43 -29 -6 1 -17
-6 -24 -14 -7 -8 -26 -15 -43 -15 -24 0 -28 -3 -19 -12 15 -15 16 -38 2 -38
-5 0 -10 6 -10 14 0 7 -9 16 -20 19 -20 5 -28 27 -10 27 6 0 10 7 10 15 0 9
-9 15 -22 15 -26 0 -54 15 -42 22 29 15 70 6 91 -18 19 -23 24 -24 29 -10 4
10 -1 23 -14 34 -16 14 -18 21 -8 33 6 8 19 18 29 22 23 9 22 28 -3 34 -11 3
-20 12 -20 19 0 19 -19 18 -26 -1 -4 -10 -20 -15 -51 -15 -36 0 -44 -3 -39
-15 8 -23 -15 -67 -32 -60 -11 4 -13 -2 -10 -25 4 -24 1 -30 -14 -30 -11 0
-32 -7 -48 -15 -28 -14 -36 -34 -31 -73 1 -7 -5 -15 -14 -18 -9 -4 -15 -18
-15 -35 0 -22 5 -29 20 -29 11 0 20 -4 20 -9 0 -5 -9 -11 -20 -14 -13 -3 -20
0 -20 9 0 8 -7 14 -15 14 -8 0 -15 5 -15 10 0 15 -17 12 -35 -7 -16 -15 -16
-17 2 -26 10 -6 21 -15 24 -20 4 -5 14 -7 22 -4 11 4 16 -3 19 -27 3 -25 0
-33 -11 -32 -12 1 -15 -9 -14 -36 1 -25 -3 -38 -12 -38 -7 0 -16 -17 -20 -37
-3 -21 -16 -46 -28 -55 -12 -10 -16 -18 -9 -18 21 0 13 -20 -8 -20 -18 0 -20
-7 -20 -54 0 -44 3 -55 18 -59 9 -2 -2 -2 -26 1 -54 6 -72 -9 -72 -59 0 -29 5
-39 20 -44 26 -8 63 4 57 18 -3 8 10 12 39 12 39 0 44 -3 44 -22 0 -22 -4 -23
-80 -23 -47 0 -80 -4 -80 -10 0 -5 18 -10 40 -10 22 0 40 -3 40 -8 0 -12 -84
-10 -92 2 -4 6 -8 1 -8 -12 0 -19 -4 -22 -20 -17 -14 5 -20 2 -20 -10 0 -8
-16 -30 -35 -47 -27 -23 -34 -36 -30 -52 5 -15 4 -17 -3 -8 -18 26 -46 1 -49
-43 0 -16 -6 -31 -12 -33 -6 -2 -11 -7 -11 -12 0 -5 -5 -21 -11 -37 -6 -15
-11 -30 -11 -33 -3 -10 -27 -30 -36 -30 -6 0 -13 -18 -17 -40 -5 -29 -12 -40
-25 -40 -20 0 -34 -26 -24 -42 4 -6 -1 -17 -10 -24 -9 -6 -18 -23 -18 -36 -1
-12 -5 -28 -9 -34 -5 -6 -4 -27 2 -48 10 -36 11 -37 29 -21 10 9 16 23 13 31
-3 9 2 14 16 14 12 0 21 4 21 10 0 5 15 16 33 23 17 8 38 21 46 30 29 36 81 4
81 -50 0 -7 7 -13 15 -13 8 0 15 4 15 9 0 5 -7 14 -15 21 -16 13 -20 48 -7 66
4 6 17 16 30 23 12 6 22 18 22 26 0 8 9 15 20 15 11 0 20 -6 20 -14 0 -8 5
-18 10 -21 6 -4 10 17 10 54 l0 61 -30 0 c-32 0 -41 17 -14 27 8 3 13 12 9 21
-3 8 3 21 14 28 23 17 37 82 20 98 -8 8 -13 8 -16 -1 -11 -31 -21 -8 -20 47 0
62 4 69 25 48 9 -9 12 -7 12 10 0 19 6 22 36 22 19 0 33 -4 30 -9 -3 -5 1 -14
8 -20 12 -10 15 -8 19 11 4 20 4 19 6 -5 0 -16 6 -38 13 -50 11 -21 11 -21 19
-2 4 11 8 37 8 58 1 63 21 41 21 -23 0 -58 1 -60 21 -48 18 11 23 10 40 -14
16 -22 29 -28 58 -28 30 0 37 -4 38 -20 1 -17 -4 -20 -34 -20 -32 0 -34 2 -22
17 13 15 11 16 -11 10 -14 -4 -40 -7 -57 -7 -31 0 -33 -2 -33 -35 0 -29 4 -35
23 -36 21 -1 21 -1 -3 -8 -22 -6 -23 -8 -7 -14 10 -4 30 -7 43 -7 13 0 24 -4
24 -10 0 -5 -12 -10 -27 -10 -16 0 -35 -5 -43 -10 -12 -8 -11 -10 7 -10 12 0
27 -9 33 -20 6 -11 15 -18 21 -15 5 4 9 -1 9 -10 0 -9 5 -13 11 -9 8 4 8 9 0
17 -17 17 -13 27 13 27 13 0 27 -7 30 -15 4 -10 16 -15 33 -13 23 2 29 -1 31
-20 3 -20 0 -22 -21 -17 -14 4 -28 2 -31 -4 -7 -10 52 -16 112 -11 19 1 22 -3
22 -39 0 -34 -3 -41 -19 -41 -11 0 -22 6 -24 13 -4 9 -6 9 -6 -1 -1 -17 25
-26 47 -17 9 5 26 7 36 6 17 -2 18 2 12 39 -6 38 -5 41 9 26 9 -9 24 -16 33
-16 13 0 14 2 4 8 -15 10 -5 42 14 42 7 0 20 10 29 23 l17 22 -7 -25 c-4 -14
-12 -26 -16 -28 -5 -2 -9 -14 -9 -27 0 -13 -4 -27 -10 -30 -5 -3 -10 -15 -10
-27 0 -12 -8 -22 -20 -25 -15 -4 -18 -9 -10 -18 6 -7 8 -23 6 -36 -3 -13 -5
-34 -5 -46 -1 -18 -7 -23 -28 -23 -42 0 -98 23 -98 40 0 11 -12 16 -42 17 -24
2 -43 -1 -43 -5 0 -23 27 -62 43 -62 10 0 15 -4 12 -10 -3 -5 -24 -10 -47 -10
-33 0 -38 -3 -29 -13 6 -8 8 -17 4 -20 -3 -4 -1 -7 5 -7 5 0 12 5 14 11 2 7
12 7 31 0 16 -6 41 -11 57 -11 15 0 41 -7 56 -15 24 -12 25 -15 9 -15 -15 0
-17 -2 -6 -9 19 -12 6 -28 -27 -36 -28 -6 -95 16 -107 35 -12 19 -24 10 -21
-15 2 -14 11 -32 22 -40 22 -16 18 -17 -48 -15 -59 2 -64 -17 -8 -26 22 -4 40
-12 40 -19 0 -17 47 -36 74 -29 28 7 43 -11 26 -31 -9 -10 -6 -15 11 -20 20
-7 21 -9 7 -19 -15 -11 -14 -15 12 -36 25 -21 32 -59 8 -44 -6 4 -9 1 -6 -7 3
-8 -5 -30 -18 -50 -13 -20 -20 -40 -16 -44 4 -4 1 -5 -7 -3 -7 2 -16 -3 -18
-9 -3 -7 0 -13 7 -13 6 0 8 -5 5 -10 -4 -6 -15 -8 -24 -5 -25 8 -66 -27 -58
-49 9 -22 27 -11 27 15 0 10 6 19 13 19 20 0 37 -22 37 -47 0 -13 7 -26 15
-29 9 -4 15 -19 15 -35 0 -17 -6 -32 -15 -35 -8 -4 -15 -12 -15 -20 0 -8 -4
-14 -8 -14 -5 0 -14 -11 -20 -25 -6 -14 -18 -25 -26 -25 -22 0 -79 -32 -95
-54 -8 -10 -26 -28 -39 -40 -70 -58 -100 -99 -106 -147 l-7 -48 -47 -3 c-43
-3 -47 -5 -44 -27 2 -19 -2 -22 -18 -18 -27 7 -80 -14 -80 -31 0 -12 -3 -12
-15 -2 -10 8 -19 9 -27 3 -23 -18 -110 -21 -167 -7 -30 8 -62 14 -70 13 -32
-3 -35 2 -11 17 14 8 17 13 7 10 -10 -3 -28 -6 -39 -6 -11 0 -22 -8 -25 -19
-7 -29 -32 -34 -60 -11 -14 11 -34 20 -43 20 -16 0 -17 3 -7 24 9 19 15 22 30
14 13 -6 23 -6 33 3 21 17 29 3 16 -26 -7 -15 -8 -25 -2 -25 6 0 10 7 10 15 0
8 4 15 9 15 10 0 8 43 -3 77 -4 11 -19 24 -34 28 -25 7 -25 8 -7 15 11 5 34 9
51 9 18 1 34 7 37 15 4 10 -3 13 -26 12 -24 -1 -34 5 -46 27 -15 26 -15 29 3
43 11 8 33 14 49 14 24 0 27 3 22 20 -5 15 0 23 19 32 14 6 26 15 26 20 0 4 7
8 15 8 17 0 47 64 44 95 -2 35 1 46 11 40 14 -9 12 -72 -2 -78 -7 -2 -10 -7
-6 -11 16 -18 83 61 83 98 0 6 10 15 23 21 14 6 22 18 22 35 0 15 7 35 15 46
19 26 19 31 -6 37 -13 3 -18 10 -14 17 4 6 17 9 30 6 22 -6 42 14 28 28 -13
13 -63 6 -63 -9 0 -8 -9 -15 -20 -15 -11 0 -20 7 -20 15 0 8 9 15 20 15 13 0
20 7 20 20 0 14 -7 20 -22 20 -19 0 -20 2 -8 10 10 6 11 10 3 10 -7 0 -13 7
-13 15 0 9 9 15 25 15 14 0 25 5 25 11 0 5 -4 8 -8 5 -5 -3 -20 1 -35 9 -23
12 -29 12 -41 -1 -17 -16 -66 -19 -66 -4 0 6 4 10 8 10 4 0 8 9 9 19 2 22 -22
19 -31 -5 -3 -8 -15 -14 -26 -14 -11 0 -20 -4 -20 -10 0 -5 -17 -9 -37 -9 -21
1 -30 3 -20 6 16 4 18 14 15 89 -3 77 -1 85 15 80 9 -2 15 0 11 5 -3 5 0 9 5
9 6 0 11 -7 11 -15 0 -14 27 -19 103 -18 11 0 17 -8 17 -24 0 -16 6 -23 20
-23 16 0 20 -7 20 -35 0 -37 5 -41 30 -25 12 8 13 13 2 30 -7 12 -8 20 -2 20
18 0 11 18 -10 25 -11 3 -20 12 -20 18 0 7 -15 18 -32 26 -18 8 -36 19 -40 25
-5 8 -8 7 -8 -1 0 -18 -65 -16 -80 2 -9 11 -23 13 -54 9 -52 -8 -82 -23 -46
-24 22 0 25 -4 24 -33 -1 -37 -23 -89 -35 -81 -5 3 -9 18 -9 35 0 23 -4 29
-21 29 -20 0 -21 -4 -16 -57 3 -33 2 -45 -2 -28 l-7 30 -13 -25 c-10 -17 -11
-25 -2 -28 24 -8 9 -22 -23 -22 -38 0 -46 12 -46 66 0 24 -4 34 -16 34 -13 0
-15 9 -12 45 3 44 2 46 -21 40 -19 -5 -22 -3 -17 11 4 11 -5 27 -30 50 -19 19
-40 34 -45 34 -6 0 -10 15 -9 33 5 83 0 138 -12 136 -54 -7 -65 16 -15 29 28
8 30 10 12 18 -22 9 -45 29 -45 39 0 3 4 4 8 1 5 -3 9 1 9 9 0 8 -4 15 -8 15
-4 0 -5 16 -2 35 5 30 2 36 -19 46 -19 8 -24 17 -20 35 5 29 22 31 29 4 5 -21
43 -29 43 -9 0 6 14 30 31 55 16 24 27 49 24 54 -6 10 30 45 50 49 6 2 14 9
18 17 11 19 48 19 41 -1 -4 -8 -1 -15 5 -15 6 0 11 -7 11 -15 0 -8 5 -15 11
-15 6 0 9 6 6 14 -3 8 -1 17 6 20 9 3 9 7 -1 14 -10 7 -2 12 30 20 31 8 48 19
55 35 12 27 2 54 -17 42 -6 -4 -19 0 -28 8 -9 8 -24 17 -32 19 -9 3 -2 8 18
12 22 5 32 13 32 27 0 10 -5 19 -11 19 -6 0 -4 7 5 15 8 8 19 15 25 15 6 0 11
8 11 18 0 23 19 42 36 35 10 -4 12 6 7 45 -3 29 -1 57 5 68 6 11 12 13 12 7 0
-23 47 -15 55 10 l8 22 4 -22 c3 -15 12 -23 24 -23 15 0 19 7 19 33 0 34 -35
137 -41 120 -2 -5 -15 -6 -29 -2 l-25 7 25 1 25 1 -28 25 c-26 25 -35 54 -19
69 4 4 7 13 7 19 0 6 12 14 28 18 28 8 39 -7 12 -17 -21 -8 -8 -24 20 -24 12
0 26 7 29 16 4 10 14 14 25 11 15 -4 18 -1 13 12 -3 9 -10 19 -16 23 -6 4 0 8
13 8 20 0 21 2 11 15 -7 9 -29 15 -51 15 -22 0 -39 5 -39 10 0 6 18 10 39 10
26 0 41 5 45 16 3 8 2 13 -2 10 -4 -2 -14 -1 -22 5 -13 7 -12 9 3 9 19 0 24
26 5 32 -8 3 -7 11 4 27 9 12 14 31 11 42 -3 11 0 19 7 19 10 0 10 3 0 15 -17
21 -10 26 45 30 45 4 77 15 42 15 -24 0 -21 17 4 23 12 3 18 10 14 16 -8 14
-35 14 -35 1 0 -5 -7 -10 -15 -10 -8 0 -15 5 -15 10 0 6 7 10 15 10 12 0 15
13 15 55 l0 55 -55 0 c-30 0 -55 4 -55 9 0 13 102 7 129 -8 19 -10 21 -15 10
-22 -12 -7 -11 -9 1 -10 8 -1 22 0 29 1 12 1 13 -1 3 -13 -10 -12 -9 -16 3
-21 9 -3 13 -11 9 -17 -4 -8 -3 -9 4 -5 7 4 12 1 12 -9 0 -10 -5 -13 -12 -9
-7 4 -8 3 -4 -4 4 -8 0 -12 -10 -12 -14 0 -15 -3 -6 -12 10 -10 15 -10 20 -1
4 6 18 13 32 14 18 3 25 11 26 26 1 12 -2 22 -5 21 -29 -3 -37 4 -35 33 2 35
23 89 34 89 7 0 20 -31 24 -55 2 -14 36 -19 36 -5 0 6 -6 13 -14 16 -9 3 -14
18 -14 37 1 17 -4 33 -11 35 -27 9 -31 40 -11 92 11 28 20 60 20 71 0 16 6 19
38 17 35 -3 37 -5 40 -40 3 -29 6 -35 21 -31 11 3 27 -4 39 -17 15 -17 27 -21
46 -16 14 3 26 11 26 16 0 6 7 10 15 10 8 0 15 -4 15 -10 0 -5 18 -10 40 -10
22 0 40 5 40 10 0 6 -15 10 -34 10 -19 0 -38 5 -41 10 -3 6 1 10 10 10 9 0 19
9 22 20 5 18 15 24 36 21 4 0 7 6 7 14 0 8 -4 15 -10 15 -5 0 -10 5 -10 10 0
13 6 13 39 -5z m2371 -26 c0 -11 -4 -17 -10 -14 -5 3 -10 15 -10 26 0 11 5 17
10 14 6 -3 10 -15 10 -26z m-2870 -30 c0 -11 -4 -18 -10 -14 -5 3 -7 12 -3 20
7 21 13 19 13 -6z m288 9 c-3 -7 -11 -13 -18 -13 -7 0 -15 6 -17 13 -3 7 4 12
17 12 13 0 20 -5 18 -12z m52 -22 c0 -3 -4 -8 -10 -11 -5 -3 -10 -1 -10 4 0 6
5 11 10 11 6 0 10 -2 10 -4z m-787 -83 c-7 -2 -19 -2 -25 0 -7 3 -2 5 12 5 14
0 19 -2 13 -5z m147 3 c0 -3 -4 -8 -10 -11 -5 -3 -10 -1 -10 4 0 6 5 11 10 11
6 0 10 -2 10 -4z m320 0 c0 -3 -4 -8 -10 -11 -5 -3 -10 -1 -10 4 0 6 5 11 10
11 6 0 10 -2 10 -4z m-67 -33 c-7 -2 -19 -2 -25 0 -7 3 -2 5 12 5 14 0 19 -2
13 -5z m-36 -19 c-3 -3 -12 -4 -19 -1 -8 3 -5 6 6 6 11 1 17 -2 13 -5z m-1004
-101 c-7 -2 -19 -2 -25 0 -7 3 -2 5 12 5 14 0 19 -2 13 -5z m662 -23 c-14 -15
-21 -17 -31 -9 -19 16 -8 29 23 29 25 0 26 0 8 -20z m1385 7 c0 -7 -5 -18 -12
-25 -9 -9 -5 -12 18 -13 16 0 22 -3 14 -6 -8 -3 -19 -11 -23 -17 -6 -8 -10 -7
-14 2 -6 14 -33 16 -33 2 0 -5 -7 -10 -15 -10 -9 0 -15 -9 -15 -25 0 -31 -18
-33 -29 -3 -6 18 -3 28 19 48 15 14 30 33 33 43 7 20 57 24 57 4z m-1760 -7
c0 -5 -4 -10 -10 -10 -5 0 -10 5 -10 10 0 6 5 10 10 10 6 0 10 -4 10 -10z
m-217 -7 c-7 -2 -19 -2 -25 0 -7 3 -2 5 12 5 14 0 19 -2 13 -5z m527 -13 c0
-11 -4 -20 -10 -20 -5 0 -10 9 -10 20 0 11 5 20 10 20 6 0 10 -9 10 -20z
m-360 0 c12 -8 11 -10 -7 -10 -13 0 -23 5 -23 10 0 13 11 13 30 0z m-60 -20
c0 -15 -7 -20 -25 -20 -29 0 -32 8 -7 26 24 19 32 17 32 -6z m390 -10 c0 -5
-7 -10 -16 -10 -8 0 -12 5 -9 10 3 6 10 10 16 10 5 0 9 -4 9 -10z m-1043 -7
c-8 -7 21 -43 35 -43 4 0 8 9 8 20 0 11 5 20 10 20 6 0 10 -9 10 -21 0 -34 19
-59 46 -59 21 0 24 4 19 20 -8 25 2 26 28 3 15 -13 21 -15 24 -5 7 18 20 15
25 -6 4 -13 -1 -17 -20 -17 -41 0 -36 -22 9 -44 24 -12 49 -21 56 -21 9 0 7
-12 -9 -45 -19 -36 -28 -45 -50 -45 -26 0 -28 -3 -28 -40 0 -33 -3 -40 -20
-40 -11 0 -20 -5 -20 -11 0 -6 -5 -9 -12 -7 -17 6 -15 50 3 74 7 11 29 24 48
30 51 14 52 34 2 34 -23 0 -41 5 -41 10 0 6 -7 10 -15 10 -20 0 -19 -17 3 -29
15 -9 15 -10 1 -11 -9 0 -40 -22 -68 -50 -28 -27 -57 -50 -64 -51 -7 0 -2 -4
11 -10 13 -5 21 -13 18 -18 -8 -12 -124 -43 -136 -36 -18 11 -11 32 15 43 28
13 32 27 10 36 -9 3 -15 0 -15 -9 0 -8 -4 -15 -8 -15 -9 0 -7 92 3 135 10 45
27 75 41 75 17 0 27 17 15 24 -5 4 -16 -1 -24 -9 -19 -19 -27 -19 -27 -1 0 8
-6 17 -12 19 -8 3 -5 6 5 6 18 1 87 66 87 82 0 5 10 9 22 9 12 0 18 -3 15 -7z
m4723 -18 c0 -8 -7 -15 -15 -15 -8 0 -15 7 -15 15 0 8 7 15 15 15 8 0 15 -7
15 -15z m-3640 -10 c0 -8 -7 -15 -15 -15 -26 0 -18 20 13 29 1 1 2 -6 2 -14z
m1135 -15 c-6 -9 -9 -9 -16 1 -10 17 0 34 13 21 6 -6 7 -16 3 -22z m-1428 4
c-3 -3 -12 -4 -19 -1 -8 3 -5 6 6 6 11 1 17 -2 13 -5z m133 -34 c0 -5 19 -11
43 -11 32 -2 35 -3 13 -6 -35 -6 -76 4 -76 17 0 6 5 10 10 10 6 0 10 -4 10
-10z m4207 -62 c7 -20 9 -47 4 -68 l-7 -35 -8 35 c-14 59 -17 100 -8 100 4 0
13 -15 19 -32z m-4127 -38 c0 -5 -4 -10 -9 -10 -6 0 -13 5 -16 10 -3 6 1 10 9
10 9 0 16 -4 16 -10z m1063 -14 c6 -15 -1 -26 -15 -26 -4 0 -8 9 -8 20 0 23
15 27 23 6z m2707 -10 c0 -8 -4 -18 -10 -21 -5 -3 -10 3 -10 14 0 12 5 21 10
21 6 0 10 -6 10 -14z m-4930 -62 c0 -8 -4 -12 -10 -9 -5 3 -10 10 -10 16 0 5
5 9 10 9 6 0 10 -7 10 -16z m560 6 c-20 -13 -40 -13 -40 0 0 6 12 10 28 10 21
0 24 -2 12 -10z m520 0 c0 -5 -4 -10 -9 -10 -6 0 -13 5 -16 10 -3 6 1 10 9 10
9 0 16 -4 16 -10z m3840 -26 c0 -8 -4 -14 -9 -14 -11 0 -22 26 -14 34 9 9 23
-3 23 -20z m-4457 -41 c-7 -2 -19 -2 -25 0 -7 3 -2 5 12 5 14 0 19 -2 13 -5z
m50 -10 c-7 -2 -19 -2 -25 0 -7 3 -2 5 12 5 14 0 19 -2 13 -5z m4657 -17 c0
-3 -4 -8 -10 -11 -5 -3 -10 -1 -10 4 0 6 5 11 10 11 6 0 10 -2 10 -4z m-228
-36 c5 -33 -6 -50 -16 -24 -9 23 -7 54 3 54 5 0 11 -14 13 -30z m-4169 0 c4
-15 0 -20 -14 -20 -17 0 -18 3 -7 20 7 11 13 20 14 20 1 0 4 -9 7 -20z m3342
-30 c-9 -14 -25 5 -25 30 0 12 3 12 16 -2 9 -9 13 -21 9 -28z m-3035 17 c0 -8
-14 -12 -40 -12 -26 0 -40 4 -40 12 0 8 14 13 40 13 26 0 40 -5 40 -13z m-877
-4 c-7 -2 -19 -2 -25 0 -7 3 -2 5 12 5 14 0 19 -2 13 -5z m257 3 c0 -2 -7 -7
-16 -10 -8 -3 -12 -2 -9 4 6 10 25 14 25 6z m-323 -12 c-3 -3 -12 -4 -19 -1
-8 3 -5 6 6 6 11 1 17 -2 13 -5z m5047 -122 c10 -17 -3 -52 -17 -46 -8 3 -12
29 -11 77 1 100 5 113 14 41 4 -33 10 -66 14 -72z m-3004 74 c0 -3 -4 -8 -10
-11 -5 -3 -10 -1 -10 4 0 6 5 11 10 11 6 0 10 -2 10 -4z m-1325 -95 c3 -5 1
-12 -5 -16 -5 -3 -10 1 -10 9 0 18 6 21 15 7z m4115 -34 c0 -10 -4 -15 -10
-12 -5 3 -10 18 -10 33 0 21 2 24 10 12 5 -8 10 -23 10 -33z m80 -14 c0 -7 -4
-13 -10 -13 -5 0 -10 12 -10 28 0 21 2 24 10 12 5 -8 10 -21 10 -27z m1280 16
c0 -6 -4 -7 -10 -4 -5 3 -10 11 -10 16 0 6 5 7 10 4 6 -3 10 -11 10 -16z
m-5860 -9 c0 -5 -7 -10 -15 -10 -8 0 -15 5 -15 10 0 6 7 10 15 10 8 0 15 -4
15 -10z m4720 -44 c0 -17 6 -38 13 -45 10 -11 10 -14 0 -18 -7 -3 -13 -13 -13
-23 0 -10 -4 -22 -10 -25 -14 -9 -12 -25 3 -25 12 0 22 -173 19 -345 -1 -44
-1 -133 -1 -198 0 -65 -3 -123 -7 -129 -10 -16 -33 44 -24 62 4 8 7 68 5 133
-1 65 2 120 7 123 4 3 6 10 2 15 -3 6 -8 72 -10 147 -2 78 -8 138 -14 140 -13
5 -13 79 1 87 6 4 7 14 3 24 -7 18 -6 100 2 113 10 16 24 -4 24 -36z m-4254
-4 c-9 -2 -16 -8 -16 -13 0 -5 -9 -4 -20 3 -26 17 -25 27 3 37 16 7 25 5 35
-7 11 -14 10 -18 -2 -20z m-389 -24 c-3 -8 -6 -5 -6 6 -1 11 2 17 5 13 3 -3 4
-12 1 -19z m5810 -10 c-3 -8 -6 -5 -6 6 -1 11 2 17 5 13 3 -3 4 -12 1 -19z
m-5417 -2 c0 -3 -4 -8 -10 -11 -5 -3 -10 -1 -10 4 0 6 5 11 10 11 6 0 10 -2
10 -4z m3250 -83 c-11 -17 -11 -17 -6 0 3 10 7 28 7 40 2 22 2 22 6 0 2 -12
-1 -30 -7 -40z m-1976 11 c20 -20 21 -54 1 -54 -8 0 -15 7 -15 15 0 11 -12 15
-44 15 -45 0 -63 11 -51 30 10 16 92 12 109 -6z m1418 -27 c60 -27 209 -77
229 -77 11 0 19 -7 19 -17 0 -10 7 -27 15 -37 13 -17 15 -17 21 -3 11 29 25
18 22 -15 -2 -23 -8 -32 -18 -31 -23 4 -60 -176 -48 -231 12 -51 7 -168 -8
-221 -12 -40 -12 -40 -58 -38 -26 2 -64 -1 -86 -6 -27 -6 -46 -5 -63 4 -15 8
-30 9 -38 4 -19 -12 -66 -11 -74 0 -3 5 -19 12 -36 16 -16 4 -42 18 -56 31
-14 13 -32 24 -39 24 -8 0 -14 4 -14 9 0 4 -11 6 -25 3 -21 -4 -25 -1 -25 21
0 43 42 62 170 78 150 19 160 21 160 34 0 17 80 33 119 24 22 -6 24 19 2 26
-12 3 -21 15 -21 26 0 12 -12 24 -35 33 -38 16 -47 27 -16 19 10 -3 21 0 25 5
7 12 -41 31 -114 43 -30 5 -72 12 -92 15 -31 5 -38 11 -38 30 0 12 11 31 25
42 l25 20 -78 7 c-42 4 -132 9 -200 10 -75 1 -128 7 -135 14 -8 8 -6 11 10 11
11 0 36 6 55 14 22 10 39 11 49 5 27 -17 95 -2 76 17 -12 12 -111 22 -128 13
-19 -9 -69 10 -69 27 0 5 6 18 13 28 11 15 33 19 121 23 60 2 127 8 150 13 55
12 168 5 208 -13z m-3512 -17 c0 -5 -10 -10 -22 -10 -19 0 -20 2 -8 10 19 13
30 13 30 0z m122 -2 c-9 -9 -15 -9 -24 0 -9 9 -7 12 12 12 19 0 21 -3 12 -12z
m-49 -5 c-7 -2 -19 -2 -25 0 -7 3 -2 5 12 5 14 0 19 -2 13 -5z m327 -38 c0
-11 -11 -15 -42 -14 l-43 1 30 13 c39 18 55 18 55 0z m1730 0 c17 -20 -9 -21
-36 0 -19 14 -19 14 2 15 12 0 27 -7 34 -15z m2848 -277 c-4 -123 -12 -247
-18 -277 -5 -30 -10 -70 -11 -90 0 -20 -4 -45 -9 -56 -11 -25 -4 177 10 295
11 94 17 198 20 335 2 69 4 81 10 53 4 -21 3 -138 -2 -260z m-4723 262 c3 -5
1 -10 -4 -10 -6 0 -11 5 -11 10 0 6 2 10 4 10 3 0 8 -4 11 -10z m512 -36 c-3
-3 -12 -4 -19 -1 -8 3 -5 6 6 6 11 1 17 -2 13 -5z m4273 -15 c0 -11 -4 -18
-10 -14 -5 3 -7 12 -3 20 7 21 13 19 13 -6z m-4750 -25 c0 -8 -4 -12 -10 -9
-5 3 -10 10 -10 16 0 5 5 9 10 9 6 0 10 -7 10 -16z m980 -24 c8 -5 11 -12 8
-15 -10 -10 -69 5 -62 16 7 12 35 11 54 -1z m1210 2 c18 -8 23 -81 6 -97 -18
-19 -104 -25 -117 -9 -9 11 -7 14 11 14 23 0 23 0 4 21 -18 20 -18 21 16 50
35 29 52 33 80 21z m-109 -11 c-46 -8 -61 -33 -37 -60 15 -16 16 -21 5 -21
-25 0 -40 35 -26 64 10 22 18 26 52 25 l40 -2 -34 -6z m-119 -53 c-9 -9 -12
-7 -12 12 0 19 3 21 12 12 9 -9 9 -15 0 -24z m1555 -15 c-3 -10 -5 -2 -5 17 0
19 2 27 5 18 2 -10 2 -26 0 -35z m-1267 -3 c0 -13 -6 -20 -17 -19 -11 0 -13 3
-5 6 6 2 12 11 12 19 0 8 2 14 5 14 3 0 5 -9 5 -20z m50 -35 c0 -8 -7 -15 -15
-15 -8 0 -15 7 -15 15 0 8 7 15 15 15 8 0 15 -7 15 -15z m-350 -34 c0 -5 8
-11 18 -13 9 -2 -17 -3 -58 -1 -117 4 -120 5 -120 14 0 5 36 9 80 9 44 0 80
-4 80 -9z m511 -24 c-13 -13 -26 -3 -16 12 3 6 11 8 17 5 6 -4 6 -10 -1 -17z
m-237 -12 c-4 -8 -8 -15 -10 -15 -2 0 -4 7 -4 15 0 8 4 15 10 15 5 0 7 -7 4
-15z m-304 -5 c0 -5 -5 -10 -10 -10 -6 0 -8 -11 -4 -25 5 -21 3 -25 -15 -25
-21 0 -29 24 -11 35 5 3 7 12 3 20 -3 10 2 15 16 15 12 0 21 -4 21 -10z m30 0
c0 -5 -4 -10 -10 -10 -5 0 -10 5 -10 10 0 6 5 10 10 10 6 0 10 -4 10 -10z
m230 -36 c0 -2 -9 -4 -20 -4 -11 0 -20 4 -20 9 0 5 9 7 20 4 11 -3 20 -7 20
-9z m3590 -14 c0 -5 -2 -10 -4 -10 -3 0 -8 5 -11 10 -3 6 -1 10 4 10 6 0 11
-4 11 -10z m-4318 -40 c-5 -32 -9 -35 -31 -21 -12 8 -11 13 10 30 13 11 24 20
25 21 0 0 -1 -13 -4 -30z m-842 0 c0 -5 -4 -10 -10 -10 -5 0 -10 5 -10 10 0 6
5 10 10 10 6 0 10 -4 10 -10z m1364 -4 c-3 -8 4 -16 18 -21 21 -7 20 -8 -12
-14 -19 -4 -36 -7 -37 -6 -9 2 13 55 23 55 7 0 11 -6 8 -14z m-1964 -10 c0
-16 -18 -31 -27 -22 -8 8 5 36 17 36 5 0 10 -6 10 -14z m55 4 c3 -5 -3 -10
-14 -10 -12 0 -21 5 -21 10 0 6 6 10 14 10 8 0 18 -4 21 -10z m2353 -51 c-2
-6 -8 -10 -13 -10 -5 0 -11 4 -13 10 -2 6 4 11 13 11 9 0 15 -5 13 -11z
m-2738 -54 c11 -13 8 -15 -19 -15 -21 0 -31 5 -31 15 0 8 8 15 19 15 10 0 24
-7 31 -15z m-70 -25 c0 -5 -4 -10 -10 -10 -5 0 -10 5 -10 10 0 6 5 10 10 10 6
0 10 -4 10 -10z m5270 -57 c0 -7 -4 -13 -10 -13 -5 0 -10 12 -10 28 0 21 2 24
10 12 5 -8 10 -21 10 -27z m-104 -111 c-11 -10 -15 4 -8 28 l7 25 3 -23 c2
-13 1 -26 -2 -30z m-1112 -169 c4 -21 9 -46 12 -55 3 -10 1 -18 -4 -18 -10 0
-32 74 -32 105 0 29 18 6 24 -32z m-2495 -199 c3 -3 -1 -10 -9 -17 -10 -9 -11
-9 -6 1 8 13 -6 17 -18 5 -7 -7 -77 -5 -85 2 -1 2 0 9 4 15 7 11 102 5 114 -6z
m-151 -129 c2 -1 -4 -5 -12 -8 -8 -3 -22 1 -33 9 -17 13 -16 14 12 8 17 -4 31
-8 33 -9z m212 -7 c0 -14 -9 -27 -24 -34 -24 -11 -24 -10 -15 15 9 21 25 40
37 41 1 0 2 -10 2 -22z m106 -38 c8 0 14 -4 14 -10 0 -12 -13 -13 -24 -3 -4 4
-21 7 -39 7 -28 -1 -28 0 -4 3 15 2 27 10 28 16 0 9 2 8 6 0 2 -7 11 -13 19
-13z m-166 6 c0 -2 -7 -7 -16 -10 -8 -3 -12 -2 -9 4 6 10 25 14 25 6z m-130
-496 c0 -5 -2 -10 -4 -10 -3 0 -8 5 -11 10 -3 6 -1 10 4 10 6 0 11 -4 11 -10z
m595 -59 c-16 -14 -205 -112 -205 -106 0 3 8 15 19 26 10 11 17 29 14 39 -3
10 0 21 6 24 10 6 15 -6 12 -26 0 -5 6 -8 14 -8 8 0 15 5 15 10 0 6 9 10 21
10 11 0 18 4 15 8 -2 4 7 9 22 10 14 1 31 7 36 12 6 6 17 10 25 10 9 0 11 -3
6 -9z m-635 -51 c0 -10 -6 -25 -14 -32 -11 -11 -10 -16 7 -30 16 -15 17 -19 4
-23 -8 -4 -26 4 -40 17 -14 13 -35 30 -48 40 -19 13 -22 19 -11 29 10 11 12
10 12 -4 0 -10 8 -17 20 -17 11 0 20 7 20 15 0 21 28 19 33 -2 4 -14 5 -12 6
5 1 27 11 30 11 2z m230 -10 c0 -5 -7 -10 -15 -10 -8 0 -15 5 -15 10 0 6 7 10
15 10 8 0 15 -4 15 -10z m-120 -39 c0 -19 -22 -23 -38 -7 -15 15 -14 16 11 16
15 0 27 -4 27 -9z m295 -21 c-3 -5 -11 -10 -16 -10 -6 0 -7 5 -4 10 3 6 11 10
16 10 6 0 7 -4 4 -10z m-523 -12 c-9 -9 -15 -9 -24 0 -9 9 -7 12 12 12 19 0
21 -3 12 -12z m3 -48 c-3 -5 -13 -10 -21 -10 -8 0 -12 5 -9 10 3 6 13 10 21
10 8 0 12 -4 9 -10z m-55 -10 c0 -5 -7 -10 -15 -10 -8 0 -15 5 -15 10 0 6 7
10 15 10 8 0 15 -4 15 -10z m-4 -57 c-10 -10 -19 5 -10 18 6 11 8 11 12 0 2
-7 1 -15 -2 -18z m324 -209 c0 -8 -4 -12 -10 -9 -5 3 -10 10 -10 16 0 5 5 9
10 9 6 0 10 -7 10 -16z m3080 -611 c8 -16 21 -36 29 -46 13 -15 12 -19 -5 -32
-10 -9 -40 -26 -66 -39 l-48 -24 2 26 c1 15 6 33 11 40 5 7 11 22 12 35 1 12
3 26 4 30 0 5 11 5 22 2 19 -6 21 -4 16 14 -7 30 7 26 23 -6z m1040 -43 c0 -5
-4 -10 -10 -10 -5 0 -10 5 -10 10 0 6 5 10 10 10 6 0 10 -4 10 -10z m-64 -55
c-9 -9 -16 -20 -16 -25 0 -5 -10 -15 -22 -21 -22 -12 -22 -11 -8 7 29 39 54
64 58 59 2 -2 -3 -11 -12 -20z m-931 -54 c-3 -6 -11 -11 -17 -11 -6 0 -6 6 2
15 14 17 26 13 15 -4z m-35 -21 c0 -5 -4 -10 -10 -10 -5 0 -10 5 -10 10 0 6 5
10 10 10 6 0 10 -4 10 -10z m-53 -6 c-3 -3 -12 -4 -19 -1 -8 3 -5 6 6 6 11 1
17 -2 13 -5z m46 -31 c12 -11 -14 -33 -39 -33 -28 0 -42 19 -23 31 17 10 53
12 62 2z m57 -13 c0 -5 -4 -10 -10 -10 -5 0 -10 5 -10 10 0 6 5 10 10 10 6 0
10 -4 10 -10z m787 -25 c-4 -8 -11 -15 -17 -15 -6 0 -6 7 2 20 14 22 24 19 15
-5z m-2705 -32 c21 -19 24 -43 5 -43 -11 0 -37 39 -37 55 0 10 14 4 32 -12z
m1819 -10 c16 -10 29 -21 29 -25 0 -12 34 -10 47 3 7 7 14 1 22 -19 11 -25 10
-35 -4 -61 -14 -29 -19 -31 -50 -25 -27 5 -35 3 -35 -9 0 -8 -12 -17 -27 -20
-16 -3 -38 -8 -49 -12 -22 -7 -22 -6 -9 55 7 34 12 75 11 91 -3 41 19 49 65
22z m859 7 c0 -5 -4 -10 -10 -10 -5 0 -10 5 -10 10 0 6 5 10 10 10 6 0 10 -4
10 -10z m-3359 -87 c13 -21 27 -46 31 -56 14 -32 -22 -16 -55 25 -25 31 -28
40 -17 53 7 8 14 15 15 15 2 0 13 -17 26 -37z m-1242 -88 c0 -33 -3 -66 -8
-73 -10 -17 -20 88 -13 143 5 36 6 37 13 15 4 -14 7 -52 8 -85z m1629 25 c19
-22 43 -64 54 -95 37 -103 -2 -79 -65 40 -54 101 -49 125 11 55z m2852 -20 c0
-5 -2 -10 -4 -10 -3 0 -8 5 -11 10 -3 6 -1 10 4 10 6 0 11 -4 11 -10z m-60
-94 c0 -3 -4 -8 -10 -11 -5 -3 -10 -1 -10 4 0 6 5 11 10 11 6 0 10 -2 10 -4z
m-4420 -171 c0 -49 1 -99 2 -110 3 -36 -2 -88 -8 -82 -4 3 -8 82 -9 174 -2
116 -1 159 6 138 5 -16 9 -70 9 -120z m979 79 c9 -40 10 -59 2 -67 -7 -7 -7
-15 2 -26 10 -12 9 -14 -6 -8 -10 4 -22 7 -25 7 -4 0 -13 10 -21 23 -10 17
-11 19 0 10 23 -23 27 -14 21 52 -6 81 10 86 27 9z m488 6 c29 -65 31 -84 11
-88 -17 -3 -31 28 -44 101 -9 52 7 46 33 -13z m117 -5 c3 -8 1 -15 -4 -15 -6
0 -10 7 -10 15 0 8 2 15 4 15 2 0 6 -7 10 -15z m773 -37 c-3 -8 -6 -5 -6 6 -1
11 2 17 5 13 3 -3 4 -12 1 -19z m-1676 -11 c15 -21 41 -113 53 -186 4 -19 15
-52 25 -75 11 -23 23 -50 27 -61 6 -18 8 -18 11 -2 5 21 17 22 33 2 16 -19 8
-50 -13 -49 -9 1 -17 -4 -17 -12 0 -25 -28 -15 -62 23 -18 21 -52 56 -75 78
-51 48 -70 94 -55 133 6 15 16 56 23 92 17 91 22 97 50 57z m3939 -17 c-8 -5
-19 -10 -25 -10 -5 0 -3 5 5 10 8 5 20 10 25 10 6 0 3 -5 -5 -10z m-3400 -35
c0 -25 -4 -35 -15 -35 -11 0 -14 7 -11 25 10 53 26 59 26 10z m-326 -10 c18
-17 39 -25 62 -25 36 0 42 -6 48 -55 6 -51 18 -85 30 -85 12 -1 -31 -40 -43
-40 -4 0 -22 28 -39 63 -18 34 -45 76 -62 94 -16 18 -30 41 -30 52 0 26 1 26
34 -4z m2872 -53 c-11 -10 -14 3 -7 38 l6 35 3 -33 c2 -19 1 -36 -2 -40z m-41
49 c3 -5 1 -12 -5 -16 -5 -3 -10 1 -10 9 0 18 6 21 15 7z m117 -53 c-7 -7 -12
-8 -12 -2 0 14 12 26 19 19 2 -3 -1 -11 -7 -17z m-1482 -3 c-7 -9 -15 -13 -17
-11 -7 7 7 26 19 26 6 0 6 -6 -2 -15z m-1506 -58 c-3 -35 -4 -38 -14 -32 -15
9 -13 58 3 53 6 -3 11 -12 11 -21z m64 -49 c15 -15 16 -74 1 -83 -14 -9 -15
-7 -22 48 -7 47 -1 57 21 35z m-48 -44 c0 -8 -4 -14 -10 -14 -5 0 -10 9 -10
21 0 11 5 17 10 14 6 -3 10 -13 10 -21z m-323 -42 c18 -19 35 -41 38 -51 8
-21 74 -75 82 -67 3 3 -1 14 -10 23 -18 22 -52 102 -44 109 9 9 128 -119 125
-135 -2 -10 -21 -20 -50 -26 -25 -5 -56 -19 -67 -29 -18 -16 -25 -17 -46 -8
-14 7 -28 20 -32 29 -4 10 -21 35 -39 57 -54 64 -58 158 -5 138 9 -3 30 -21
48 -40z m2888 38 c3 -5 1 -10 -4 -10 -6 0 -11 5 -11 10 0 6 2 10 4 10 3 0 8
-4 11 -10z m264 -52 c0 -27 -2 -29 -8 -13 -5 11 -6 26 -4 33 8 21 13 13 12
-20z m-1299 -14 c0 -2 -9 -8 -20 -14 -15 -8 -21 -6 -30 10 -16 30 -3 42 26 24
13 -9 24 -18 24 -20z m1350 -4 c0 -11 -4 -20 -10 -20 -5 0 -10 9 -10 20 0 11
5 20 10 20 6 0 10 -9 10 -20z m-3336 -85 c42 -42 56 -62 56 -84 0 -16 3 -38 6
-48 4 -10 -11 -1 -34 22 -23 22 -41 45 -42 51 0 13 -53 64 -66 64 -5 0 -15 4
-23 9 -12 8 -12 12 -2 25 23 27 47 18 105 -39z m3278 3 c-9 -9 -12 -7 -12 12
0 19 3 21 12 12 9 -9 9 -15 0 -24z m-3409 -62 c9 -7 17 -20 17 -27 0 -8 18
-33 40 -55 33 -35 70 -97 70 -119 0 -11 -28 -4 -40 10 -7 9 -28 23 -46 31 -20
10 -34 24 -34 34 0 10 -5 20 -11 22 -5 2 -14 19 -18 38 -4 19 -11 45 -15 58
-8 25 8 29 37 8z m3117 10 c0 -3 -4 -8 -10 -11 -5 -3 -10 -1 -10 4 0 6 5 11
10 11 6 0 10 -2 10 -4z m-3145 -173 c-5 -14 19 -36 28 -26 8 7 47 -25 47 -39
0 -12 -47 -28 -64 -22 -8 3 -20 22 -27 42 -6 21 -15 41 -19 45 -4 4 -5 20 -2
34 l5 26 18 -24 c10 -13 17 -29 14 -36z m-215 -215 c-1 -22 -46 -66 -56 -55
-3 3 2 19 10 35 13 25 23 35 44 41 1 1 2 -9 2 -21z"/>
<path d="M6291 7724 c0 -11 3 -14 6 -6 3 7 2 16 -1 19 -3 4 -6 -2 -5 -13z"/>
<path d="M4735 7380 c-4 -6 -3 -16 3 -22 6 -6 12 -6 17 2 4 6 3 16 -3 22 -6 6
-12 6 -17 -2z"/>
<path d="M4631 7294 c0 -11 3 -14 6 -6 3 7 2 16 -1 19 -3 4 -6 -2 -5 -13z"/>
<path d="M4755 7301 c-3 -5 -1 -12 5 -16 5 -3 10 1 10 9 0 18 -6 21 -15 7z"/>
<path d="M4755 7240 c-3 -5 -1 -10 4 -10 6 0 11 5 11 10 0 6 -2 10 -4 10 -3 0
-8 -4 -11 -10z"/>
<path d="M4835 7201 c-3 -5 -1 -12 5 -16 5 -3 10 1 10 9 0 18 -6 21 -15 7z"/>
<path d="M3600 6459 c0 -5 5 -7 10 -4 6 3 10 8 10 11 0 2 -4 4 -10 4 -5 0 -10
-5 -10 -11z"/>
<path d="M5238 7104 c-8 -7 12 -54 23 -54 4 0 11 5 15 11 7 12 -29 53 -38 43z"/>
<path d="M5275 7040 c-3 -5 -1 -10 4 -10 6 0 11 5 11 10 0 6 -2 10 -4 10 -3 0
-8 -4 -11 -10z"/>
<path d="M4957 7090 c-3 -11 -1 -23 4 -26 5 -3 9 6 9 20 0 31 -6 34 -13 6z"/>
<path d="M1150 6370 c0 -19 3 -21 12 -12 9 9 9 15 0 24 -9 9 -12 7 -12 -12z"/>
<path d="M475 6350 c-4 -6 3 -10 14 -10 25 0 27 6 6 13 -8 4 -17 2 -20 -3z"/>
<path d="M1190 6226 c0 -12 6 -13 30 -5 17 6 30 13 30 15 0 2 -13 4 -30 4 -20
0 -30 -5 -30 -14z"/>
<path d="M1271 6114 c-18 -21 -8 -27 23 -13 19 9 23 15 14 21 -17 10 -21 10
-37 -8z"/>
<path d="M1337 6124 c-8 -8 1 -24 14 -24 5 0 9 7 9 15 0 15 -12 20 -23 9z"/>
<path d="M1190 6050 c0 -5 7 -10 16 -10 8 0 12 5 9 10 -3 6 -10 10 -16 10 -5
0 -9 -4 -9 -10z"/>
<path d="M1258 6003 c7 -3 16 -2 19 1 4 3 -2 6 -13 5 -11 0 -14 -3 -6 -6z"/>
<path d="M1200 5740 c0 -5 7 -7 15 -4 8 4 15 8 15 10 0 2 -7 4 -15 4 -8 0 -15
-4 -15 -10z"/>
<path d="M1200 5700 c0 -5 5 -10 10 -10 6 0 10 5 10 10 0 6 -4 10 -10 10 -5 0
-10 -4 -10 -10z"/>
<path d="M1020 5640 c0 -5 7 -10 15 -10 8 0 15 5 15 10 0 6 -7 10 -15 10 -8 0
-15 -4 -15 -10z"/>
<path d="M1970 5790 c0 -5 7 -10 15 -10 8 0 15 5 15 10 0 6 -7 10 -15 10 -8 0
-15 -4 -15 -10z"/>
<path d="M2320 5770 c0 -5 5 -10 11 -10 5 0 7 5 4 10 -3 6 -8 10 -11 10 -2 0
-4 -4 -4 -10z"/>
<path d="M1928 5763 c7 -3 16 -2 19 1 4 3 -2 6 -13 5 -11 0 -14 -3 -6 -6z"/>
<path d="M2066 5738 c-17 -19 -17 -22 -2 -30 21 -12 21 -28 -1 -29 -12 0 -13
-2 -5 -6 19 -7 42 16 42 43 0 13 5 24 11 24 5 0 7 5 4 10 -9 15 -28 11 -49
-12z"/>
<path d="M2385 5690 c-3 -5 -1 -10 4 -10 6 0 11 5 11 10 0 6 -2 10 -4 10 -3 0
-8 -4 -11 -10z"/>
<path d="M2000 5630 c0 -21 5 -30 16 -30 14 0 14 3 4 15 -9 10 -9 15 -1 15 6
0 11 7 11 15 0 8 -7 15 -15 15 -10 0 -15 -10 -15 -30z"/>
<path d="M1836 5477 c-16 -12 -13 -13 25 -11 62 2 66 3 49 14 -21 14 -53 12
-74 -3z"/>
<path d="M1655 5120 c3 -5 10 -10 16 -10 5 0 9 5 9 10 0 6 -7 10 -16 10 -8 0
-12 -4 -9 -10z"/>
<path d="M2045 5110 c3 -5 13 -10 21 -10 8 0 14 5 14 10 0 6 -9 10 -21 10 -11
0 -17 -4 -14 -10z"/>
<path d="M1605 5080 c-4 -6 -3 -16 3 -22 6 -6 12 -6 17 2 4 6 3 16 -3 22 -6 6
-12 6 -17 -2z"/>
<path d="M1540 4854 c0 -11 29 -34 44 -34 20 0 20 7 2 26 -14 14 -46 20 -46 8z"/>
<path d="M1936 4655 c-3 -8 -1 -15 4 -15 6 0 10 7 10 15 0 8 -2 15 -4 15 -2 0
-6 -7 -10 -15z"/>
<path d="M2000 4549 c0 -16 4 -19 21 -14 12 4 29 8 37 9 9 2 18 8 20 14 2 8
-11 12 -37 12 -35 0 -41 -3 -41 -21z"/>
<path d="M2270 4116 c0 -21 21 -31 30 -15 5 7 6 17 4 21 -9 14 -34 9 -34 -6z"/>
<path d="M2340 4120 c0 -5 9 -10 19 -10 11 0 23 5 26 10 4 6 -5 10 -19 10 -14
0 -26 -4 -26 -10z"/>
<path d="M2400 4120 c0 -5 9 -10 20 -10 11 0 20 5 20 10 0 6 -9 10 -20 10 -11
0 -20 -4 -20 -10z"/>
<path d="M2408 4083 c6 -2 18 -2 25 0 6 3 1 5 -13 5 -14 0 -19 -2 -12 -5z"/>
<path d="M2000 4029 c0 -5 5 -7 10 -4 6 3 10 8 10 11 0 2 -4 4 -10 4 -5 0 -10
-5 -10 -11z"/>
<path d="M2286 4021 c-4 -7 -5 -15 -2 -18 9 -9 19 4 14 18 -4 11 -6 11 -12 0z"/>
<path d="M1822 4011 c-10 -6 -10 -10 3 -21 13 -11 15 -9 15 9 0 24 0 24 -18
12z"/>
<path d="M1578 3913 c7 -3 16 -2 19 1 4 3 -2 6 -13 5 -11 0 -14 -3 -6 -6z"/>
<path d="M1570 3801 c0 -22 16 -36 24 -22 8 12 -3 41 -15 41 -5 0 -9 -9 -9
-19z"/>
<path d="M1360 3763 c0 -21 3 -24 9 -14 5 8 7 20 4 28 -8 21 -13 15 -13 -14z"/>
<path d="M2270 3390 c0 -5 5 -10 10 -10 6 0 10 5 10 10 0 6 -4 10 -10 10 -5 0
-10 -4 -10 -10z"/>
<path d="M2357 3364 c-11 -11 -8 -54 3 -54 6 0 13 6 16 14 7 17 -9 50 -19 40z"/>
<path d="M2260 3293 c0 -15 29 -49 30 -35 0 7 -7 20 -15 28 -8 9 -15 11 -15 7z"/>
<path d="M1528 3088 c9 -9 15 -9 24 0 9 9 7 12 -12 12 -19 0 -21 -3 -12 -12z"/>
<path d="M2005 2970 c-3 -5 -1 -10 4 -10 6 0 11 5 11 10 0 6 -2 10 -4 10 -3 0
-8 -4 -11 -10z"/>
<path d="M2038 2953 c7 -3 16 -2 19 1 4 3 -2 6 -13 5 -11 0 -14 -3 -6 -6z"/>
<path d="M1585 2930 c3 -5 8 -10 11 -10 2 0 4 5 4 10 0 6 -5 10 -11 10 -5 0
-7 -4 -4 -10z"/>
<path d="M1933 2933 c-18 -7 -16 -23 2 -23 8 0 15 7 15 15 0 8 -1 15 -2 14 -2
0 -9 -3 -15 -6z"/>
<path d="M1680 2910 c36 -12 80 -12 80 0 0 6 -24 10 -52 9 -42 -1 -48 -3 -28
-9z"/>
<path d="M1693 2883 c15 -2 37 -2 50 0 12 2 0 4 -28 4 -27 0 -38 -2 -22 -4z"/>
<path d="M296 5376 c7 -19 58 -22 52 -3 -3 6 -17 13 -31 15 -21 3 -26 0 -21
-12z"/>
<path d="M372 5361 c-10 -6 -9 -10 7 -14 14 -3 21 0 21 9 0 16 -9 18 -28 5z"/>
<path d="M3403 4674 c-7 -20 0 -26 39 -30 34 -3 74 18 64 34 -10 16 -96 13
-103 -4z"/>
<path d="M3860 4090 c0 -5 5 -10 10 -10 6 0 10 5 10 10 0 6 -4 10 -10 10 -5 0
-10 -4 -10 -10z"/>
<path d="M2580 4544 c0 -8 5 -12 10 -9 6 3 10 10 10 16 0 5 -4 9 -10 9 -5 0
-10 -7 -10 -16z"/>
<path d="M1426 753 c-10 -10 -7 -25 3 -18 5 3 12 1 16 -5 7 -12 25 -14 25 -2
0 11 -37 32 -44 25z"/>
<path d="M787 4843 c-11 -10 -8 -43 3 -43 6 0 10 11 10 25 0 26 -2 29 -13 18z"/>
<path d="M682 4681 c-7 -19 -7 -33 -1 -36 23 -15 39 24 20 53 -6 10 -11 6 -19
-17z"/>
<path d="M290 4674 c-30 -16 -50 -18 -50 -4 0 6 -7 10 -15 10 -8 0 -15 -4 -15
-10 0 -5 7 -10 15 -10 9 0 15 -9 15 -21 0 -16 4 -19 18 -14 9 4 27 10 40 12
15 4 22 13 22 29 0 13 -1 24 -2 23 -2 -1 -14 -7 -28 -15z"/>
<path d="M650 4626 c0 -8 14 -20 30 -28 17 -7 30 -19 30 -25 0 -7 5 -13 10
-13 7 0 7 6 0 19 -15 28 -14 29 25 33 50 4 48 22 -2 26 -30 2 -43 -1 -43 -9 0
-10 -3 -10 -12 -1 -16 16 -38 15 -38 -2z"/>
<path d="M616 4611 c-3 -5 1 -11 9 -15 9 -3 15 0 15 9 0 16 -16 20 -24 6z"/>
<path d="M210 4530 c0 -5 7 -10 16 -10 8 0 12 5 9 10 -3 6 -10 10 -16 10 -5 0
-9 -4 -9 -10z"/>
<path d="M570 4335 c0 -8 5 -15 10 -15 6 0 10 7 10 15 0 8 -4 15 -10 15 -5 0
-10 -7 -10 -15z"/>
</g>
</svg>
